<mxfile host="65bd71144e" modified="2020-12-20T06:25:51.555Z" agent="5.0 (Macintosh; Intel Mac OS X 10_11_6) AppleWebKit/537.36 (KHTML, like Gecko) Code/1.50.1 Chrome/83.0.4103.122 Electron/9.2.1 Safari/537.36" version="13.10.0" etag="6wvqUv1pJfjZa-tk9ECf" type="embed">
    <diagram id="DHlDgQE9x4q80Liv08kX" name="Page-1">
        <mxGraphModel dx="804" dy="446" grid="1" gridSize="10" guides="1" tooltips="1" connect="1" arrows="1" fold="1" page="1" pageScale="1" pageWidth="827" pageHeight="1169" math="0" shadow="0">
            <root>
                <mxCell id="0"/>
                <mxCell id="1" parent="0"/>
                <mxCell id="2" value="" style="rounded=1;whiteSpace=wrap;html=1;fillColor=#d5e8d4;strokeColor=#82b366;" vertex="1" parent="1">
                    <mxGeometry x="124" y="160" width="416" height="590" as="geometry"/>
                </mxCell>
                <mxCell id="5" value="FlumeConfiguration" style="text;html=1;strokeColor=none;fillColor=none;align=center;verticalAlign=middle;whiteSpace=wrap;rounded=0;fontStyle=1;fontSize=22;" vertex="1" parent="1">
                    <mxGeometry x="272" y="190" width="120" height="20" as="geometry"/>
                </mxCell>
                <mxCell id="12" value="&lt;b&gt;&lt;font style=&quot;font-size: 14px ; line-height: 160%&quot;&gt;Context&lt;/font&gt;&lt;/b&gt;&lt;br&gt;The context is a key-value store used to pass configuration information" style="rounded=0;whiteSpace=wrap;html=1;fontSize=11;fillColor=#fff2cc;strokeColor=#d6b656;align=center;" vertex="1" parent="1">
                    <mxGeometry x="600" y="230" width="120" height="90" as="geometry"/>
                </mxCell>
                <mxCell id="43" value="" style="group" vertex="1" connectable="0" parent="1">
                    <mxGeometry x="156.5" y="240" width="173.5" height="475" as="geometry"/>
                </mxCell>
                <mxCell id="3" value="" style="rounded=0;whiteSpace=wrap;html=1;fontStyle=1;fillColor=#fff2cc;strokeColor=#d6b656;" vertex="1" parent="43">
                    <mxGeometry width="173.5" height="475" as="geometry"/>
                </mxCell>
                <mxCell id="7" value="sourceConfigMap" style="rounded=0;whiteSpace=wrap;html=1;fontSize=12;fillColor=#f8cecc;strokeColor=#b85450;" vertex="1" parent="43">
                    <mxGeometry x="21.75" y="53" width="130" height="40" as="geometry"/>
                </mxCell>
                <mxCell id="9" value="channelConfigMap" style="rounded=0;whiteSpace=wrap;html=1;fontSize=12;fillColor=#dae8fc;strokeColor=#6c8ebf;" vertex="1" parent="43">
                    <mxGeometry x="21.75" y="133" width="130" height="40" as="geometry"/>
                </mxCell>
                <mxCell id="11" value="&lt;span style=&quot;color: rgb(0 , 0 , 0) ; font-family: &amp;#34;helvetica&amp;#34; ; font-size: 12px ; font-style: normal ; font-weight: 400 ; letter-spacing: normal ; text-align: center ; text-indent: 0px ; text-transform: none ; word-spacing: 0px ; display: inline ; float: none&quot;&gt;sinkConfigMap&lt;/span&gt;" style="rounded=0;whiteSpace=wrap;html=1;fontSize=12;fillColor=#e1d5e7;strokeColor=#9673a6;" vertex="1" parent="43">
                    <mxGeometry x="21.75" y="213" width="130" height="40" as="geometry"/>
                </mxCell>
                <mxCell id="13" value="AgentConfiguration" style="text;html=1;strokeColor=none;fillColor=none;align=center;verticalAlign=middle;whiteSpace=wrap;rounded=0;fontStyle=1;fontSize=16;" vertex="1" parent="43">
                    <mxGeometry x="26.75" y="20" width="120" height="20" as="geometry"/>
                </mxCell>
                <mxCell id="8" value="sourceContextMap" style="rounded=0;whiteSpace=wrap;html=1;fontSize=12;fillColor=#f8cecc;strokeColor=#b85450;" vertex="1" parent="43">
                    <mxGeometry x="21.75" y="93" width="130" height="40" as="geometry"/>
                </mxCell>
                <mxCell id="10" value="channelContextMap" style="rounded=0;whiteSpace=wrap;html=1;fontSize=12;fillColor=#dae8fc;strokeColor=#6c8ebf;" vertex="1" parent="43">
                    <mxGeometry x="21.75" y="173" width="130" height="40" as="geometry"/>
                </mxCell>
                <mxCell id="23" value="&lt;span style=&quot;color: rgb(0 , 0 , 0) ; font-family: &amp;#34;helvetica&amp;#34; ; font-size: 12px ; font-style: normal ; font-weight: 400 ; letter-spacing: normal ; text-align: center ; text-indent: 0px ; text-transform: none ; word-spacing: 0px ; display: inline ; float: none&quot;&gt;sinkContextMap&lt;/span&gt;" style="rounded=0;whiteSpace=wrap;html=1;fontSize=12;fillColor=#e1d5e7;strokeColor=#9673a6;" vertex="1" parent="43">
                    <mxGeometry x="21.75" y="253" width="130" height="40" as="geometry"/>
                </mxCell>
                <mxCell id="24" value="sinkGroupContextMap" style="rounded=0;whiteSpace=wrap;html=1;fontSize=12;fillColor=#b0e3e6;strokeColor=#0e8088;" vertex="1" parent="43">
                    <mxGeometry x="21.75" y="333" width="130" height="40" as="geometry"/>
                </mxCell>
                <mxCell id="25" value="configFilterContextMap" style="rounded=0;whiteSpace=wrap;html=1;fontSize=12;fillColor=#bac8d3;strokeColor=#23445d;" vertex="1" parent="43">
                    <mxGeometry x="21.75" y="413" width="130" height="40" as="geometry"/>
                </mxCell>
                <mxCell id="26" value="sinkGroupConfigMap" style="rounded=0;whiteSpace=wrap;html=1;fontSize=12;fillColor=#b0e3e6;strokeColor=#0e8088;" vertex="1" parent="43">
                    <mxGeometry x="21.75" y="293" width="130" height="40" as="geometry"/>
                </mxCell>
                <mxCell id="27" value="&lt;span style=&quot;color: rgb(0 , 0 , 0) ; font-family: &amp;#34;helvetica&amp;#34; ; font-size: 12px ; font-style: normal ; font-weight: 400 ; letter-spacing: normal ; text-align: center ; text-indent: 0px ; text-transform: none ; word-spacing: 0px ; display: inline ; float: none&quot;&gt;configFilterConfigMap&lt;/span&gt;" style="rounded=0;whiteSpace=wrap;html=1;fontSize=12;fillColor=#bac8d3;strokeColor=#23445d;" vertex="1" parent="43">
                    <mxGeometry x="21.75" y="373" width="130" height="40" as="geometry"/>
                </mxCell>
                <mxCell id="44" value="" style="group" vertex="1" connectable="0" parent="1">
                    <mxGeometry x="340" y="240" width="173.5" height="475" as="geometry"/>
                </mxCell>
                <mxCell id="45" value="" style="rounded=0;whiteSpace=wrap;html=1;fontStyle=1;fillColor=#ffe6cc;strokeColor=#d79b00;" vertex="1" parent="44">
                    <mxGeometry width="173.5" height="475" as="geometry"/>
                </mxCell>
                <mxCell id="46" value="sourceConfigMap" style="rounded=0;whiteSpace=wrap;html=1;fontSize=12;fillColor=#f8cecc;strokeColor=#b85450;" vertex="1" parent="44">
                    <mxGeometry x="21.75" y="53" width="130" height="40" as="geometry"/>
                </mxCell>
                <mxCell id="47" value="channelConfigMap" style="rounded=0;whiteSpace=wrap;html=1;fontSize=12;fillColor=#dae8fc;strokeColor=#6c8ebf;" vertex="1" parent="44">
                    <mxGeometry x="21.75" y="133" width="130" height="40" as="geometry"/>
                </mxCell>
                <mxCell id="48" value="&lt;span style=&quot;color: rgb(0 , 0 , 0) ; font-family: &amp;#34;helvetica&amp;#34; ; font-size: 12px ; font-style: normal ; font-weight: 400 ; letter-spacing: normal ; text-align: center ; text-indent: 0px ; text-transform: none ; word-spacing: 0px ; display: inline ; float: none&quot;&gt;sinkConfigMap&lt;/span&gt;" style="rounded=0;whiteSpace=wrap;html=1;fontSize=12;fillColor=#e1d5e7;strokeColor=#9673a6;" vertex="1" parent="44">
                    <mxGeometry x="21.75" y="213" width="130" height="40" as="geometry"/>
                </mxCell>
                <mxCell id="49" value="AgentConfiguration" style="text;html=1;strokeColor=none;fillColor=none;align=center;verticalAlign=middle;whiteSpace=wrap;rounded=0;fontStyle=1;fontSize=16;" vertex="1" parent="44">
                    <mxGeometry x="26.75" y="20" width="120" height="20" as="geometry"/>
                </mxCell>
                <mxCell id="50" value="sourceContextMap" style="rounded=0;whiteSpace=wrap;html=1;fontSize=12;fillColor=#f8cecc;strokeColor=#b85450;" vertex="1" parent="44">
                    <mxGeometry x="21.75" y="93" width="130" height="40" as="geometry"/>
                </mxCell>
                <mxCell id="51" value="channelContextMap" style="rounded=0;whiteSpace=wrap;html=1;fontSize=12;fillColor=#dae8fc;strokeColor=#6c8ebf;" vertex="1" parent="44">
                    <mxGeometry x="21.75" y="173" width="130" height="40" as="geometry"/>
                </mxCell>
                <mxCell id="52" value="&lt;span style=&quot;color: rgb(0 , 0 , 0) ; font-family: &amp;#34;helvetica&amp;#34; ; font-size: 12px ; font-style: normal ; font-weight: 400 ; letter-spacing: normal ; text-align: center ; text-indent: 0px ; text-transform: none ; word-spacing: 0px ; display: inline ; float: none&quot;&gt;sinkContextMap&lt;/span&gt;" style="rounded=0;whiteSpace=wrap;html=1;fontSize=12;fillColor=#e1d5e7;strokeColor=#9673a6;" vertex="1" parent="44">
                    <mxGeometry x="21.75" y="253" width="130" height="40" as="geometry"/>
                </mxCell>
                <mxCell id="53" value="sinkGroupContextMap" style="rounded=0;whiteSpace=wrap;html=1;fontSize=12;fillColor=#b0e3e6;strokeColor=#0e8088;" vertex="1" parent="44">
                    <mxGeometry x="21.75" y="333" width="130" height="40" as="geometry"/>
                </mxCell>
                <mxCell id="54" value="configFilterContextMap" style="rounded=0;whiteSpace=wrap;html=1;fontSize=12;fillColor=#bac8d3;strokeColor=#23445d;" vertex="1" parent="44">
                    <mxGeometry x="21.75" y="413" width="130" height="40" as="geometry"/>
                </mxCell>
                <mxCell id="55" value="sinkGroupConfigMap" style="rounded=0;whiteSpace=wrap;html=1;fontSize=12;fillColor=#b0e3e6;strokeColor=#0e8088;" vertex="1" parent="44">
                    <mxGeometry x="21.75" y="293" width="130" height="40" as="geometry"/>
                </mxCell>
                <mxCell id="56" value="&lt;span style=&quot;color: rgb(0 , 0 , 0) ; font-family: &amp;#34;helvetica&amp;#34; ; font-size: 12px ; font-style: normal ; font-weight: 400 ; letter-spacing: normal ; text-align: center ; text-indent: 0px ; text-transform: none ; word-spacing: 0px ; display: inline ; float: none&quot;&gt;configFilterConfigMap&lt;/span&gt;" style="rounded=0;whiteSpace=wrap;html=1;fontSize=12;fillColor=#bac8d3;strokeColor=#23445d;" vertex="1" parent="44">
                    <mxGeometry x="21.75" y="373" width="130" height="40" as="geometry"/>
                </mxCell>
                <mxCell id="60" value="&lt;h1 style=&quot;font-size: 17px&quot;&gt;&lt;font style=&quot;font-size: 22px&quot;&gt;ConfigMap&lt;/font&gt;&lt;/h1&gt;&lt;div style=&quot;text-align: left&quot;&gt;&lt;font style=&quot;font-size: 14px&quot;&gt;Key为组件名称，Value为ComponentConfiguration：&lt;/font&gt;&lt;/div&gt;&lt;div style=&quot;text-align: left ; font-size: 14px&quot;&gt;&lt;ul&gt;&lt;li&gt;&lt;font style=&quot;font-size: 14px&quot;&gt;SourceConfiguration&lt;/font&gt;&lt;/li&gt;&lt;li&gt;&lt;font style=&quot;font-size: 14px&quot;&gt;ChannelConfiguration&lt;/font&gt;&lt;/li&gt;&lt;li&gt;&lt;font style=&quot;font-size: 14px&quot;&gt;SinkConfiguration&lt;/font&gt;&lt;/li&gt;&lt;li&gt;&lt;font style=&quot;font-size: 14px&quot;&gt;SinkGroupConfiguration&lt;/font&gt;&lt;/li&gt;&lt;li&gt;&lt;font style=&quot;font-size: 14px&quot;&gt;ConfigFilterConfiguration&lt;/font&gt;&lt;/li&gt;&lt;/ul&gt;&lt;/div&gt;&lt;div style=&quot;text-align: left&quot;&gt;&lt;br&gt;&lt;/div&gt;" style="text;html=1;strokeColor=none;fillColor=none;spacing=5;spacingTop=-20;whiteSpace=wrap;overflow=hidden;rounded=0;fontSize=18;align=center;" vertex="1" parent="1">
                    <mxGeometry x="600" y="460" width="360" height="210" as="geometry"/>
                </mxCell>
                <mxCell id="61" value="&lt;h1 style=&quot;font-size: 17px&quot;&gt;&lt;font style=&quot;font-size: 22px&quot;&gt;ContextMap&lt;/font&gt;&lt;/h1&gt;&lt;div style=&quot;text-align: left&quot;&gt;&lt;font style=&quot;font-size: 14px&quot;&gt;Key为组件名称，Value为对应的Context。&lt;/font&gt;&lt;/div&gt;&lt;div style=&quot;text-align: left&quot;&gt;&lt;br&gt;&lt;/div&gt;" style="text;html=1;strokeColor=none;fillColor=none;spacing=5;spacingTop=-20;whiteSpace=wrap;overflow=hidden;rounded=0;fontSize=18;align=center;" vertex="1" parent="1">
                    <mxGeometry x="580" y="340" width="320" height="87" as="geometry"/>
                </mxCell>
            </root>
        </mxGraphModel>
    </diagram>
</mxfile>